<svg width="151" height="162" viewBox="0 0 151 162" fill="none" xmlns="http://www.w3.org/2000/svg">
<path d="M148.405 85.8842C138.681 130.22 95.7335 154.101 75.4753 160.5C42.2957 146.568 30.4694 137.589 13.7153 114.059C-3.0387 90.5283 0.903429 63.2827 0.903429 15.9126C79.4174 -18.4541 150.704 15.2933 150.047 15.9126C149.39 16.5318 152.347 58.9482 148.405 85.8842Z" fill="#E52B2C" stroke="black"/>
<path d="M123.109 74.4286C107.012 97.6493 124.533 110.55 135.593 115.607C124.752 133.254 103.837 146.98 94.2002 152.141C88.9441 148.425 65.2913 135.112 60.6922 106.009C36.8631 107.547 27.6299 95.9404 24.6131 92.148L24.556 92.0763C21.5994 88.361 21.9279 89.909 13.3867 87.7418C12.0726 84.9553 8.13046 72.8806 10.43 62.3538C12.4011 63.9019 22.2565 65.4499 32.4403 58.0193C34.8056 51.0841 40.872 44.8093 43.6096 42.5388C42.5145 39.4428 40.653 31.3929 41.967 23.9623C51.4938 26.7488 56.75 28.916 63.3202 33.2506C69.5619 22.7239 75.1466 18.3893 78.4317 15.6028C82.7023 18.3893 93.2146 32.3218 93.2146 45.9445C115.882 44.3965 120.481 57.4001 123.109 61.7346C129.154 61.9823 135.921 67.3076 138.549 69.7844C138.549 71.0229 137.564 70.7133 123.109 74.4286Z" fill="white" stroke="black"/>
<path d="M110.627 82.4788C103.531 100.56 122.343 115.401 132.637 120.561C127.162 127.166 113.123 141.862 100.771 147.806C48.8665 121.18 62.9926 65.4503 87.3023 53.6852C110.626 43.1585 119.168 63.5927 117.854 68.5464C116.54 73.5001 116.868 73.8097 110.627 82.4788Z" fill="#E52B2C" stroke="black"/>
<path d="M102.085 60.3767C104.377 60.3769 106.184 62.1216 106.184 64.2117C106.183 66.3016 104.377 68.0454 102.085 68.0457C99.7929 68.0457 97.9856 66.3017 97.9854 64.2117C97.9854 62.1214 99.7927 60.3767 102.085 60.3767Z" fill="#FFFEFE" stroke="black"/>
<path d="M86.3316 47.1829C61.102 59.5673 57.8606 87.2257 59.3937 99.5068C38.0405 100.745 29.1708 88.9801 27.5282 85.5744C25.5572 84.9552 19.3153 83.7168 18.0013 82.7879C16.6873 81.8591 15.3732 69.7844 16.3587 69.1651C17.3443 68.5459 27.8566 68.8555 34.7553 62.973C44.2821 41.6099 59.3937 41.3003 67.2779 41.3003C65.3068 36.9658 76.8047 23.343 77.4617 23.343C78.1187 23.343 88.9596 36.9658 86.3316 47.1829Z" fill="#E52B2C"/>
<path d="M56.1086 36.3466C53.4806 36.3466 50.1955 38.4106 48.8814 39.4427C47.5674 37.585 46.9104 32.012 47.2389 31.7024C47.5674 31.3928 54.4661 32.9409 56.1086 36.3466Z" fill="#E52B2C"/>
<path d="M86.3316 47.1829C61.102 59.5673 57.8606 87.2257 59.3937 99.5068C38.0405 100.745 29.1708 88.9801 27.5282 85.5744C25.5572 84.9552 19.3153 83.7168 18.0013 82.7879C16.6873 81.8591 15.3732 69.7844 16.3587 69.1651C17.3443 68.5459 27.8566 68.8555 34.7553 62.973C44.2821 41.6099 59.3937 41.3003 67.2779 41.3003C65.3068 36.9658 76.8047 23.343 77.4617 23.343C78.1187 23.343 88.9596 36.9658 86.3316 47.1829Z" stroke="black"/>
<path d="M56.1086 36.3466C53.4806 36.3466 50.1955 38.4106 48.8814 39.4427C47.5674 37.585 46.9104 32.012 47.2389 31.7024C47.5674 31.3928 54.4661 32.9409 56.1086 36.3466Z" stroke="black"/>
<path d="M51.4949 57.2807C53.7869 57.2809 55.5935 59.0255 55.5935 61.1157C55.5933 63.2056 53.7867 64.9494 51.4949 64.9496C49.2028 64.9496 47.3955 63.2057 47.3953 61.1157C47.3953 59.0254 49.2026 57.2807 51.4949 57.2807Z" fill="white" stroke="black"/>
</svg>
